            Thor.2011.PL.BRRip.XviD-RLF
            ~~~~~~~~~~~~~~~~~~~~~~~~~~~


General:


Complete name                    : rlf-thor-pl.avi
Format                           : AVI
Format/Info                      : Audio Video Interleave
File size                        : 1.19 GiB
Duration                         : 1h 54mn 
Overall bit rate                 : 1 483 Kbps
Language                         : Polish
Subs                             : English
Encoder                          : Ralf


Video:

                     
Format                           : MPEG-4 Visual
Format profile                   : Advanced Simple@L5
Format settings, BVOP            : 2
Format settings, QPel            : No
Format settings, GMC             : No warppoints
Format settings, Matrix          : H.263
Muxing mode                      : Packed bitstream
Codec ID                         : XVID
Duration                         : 1h 54mn
Bit rate                         : 1 029 Kbps
Width                            : 640 pixels
Height                           : 272 pixels
Display aspect ratio             : 2.35:1
Frame rate                       : 23.976 fps
Color space                      : YUV
Chroma subsampling               : 4:2:0
Bit depth                        : 8 bits
Scan type                        : Progressive
Bits/(Pixel*Frame)               : 0.247
Stream size                      : 845 MiB (69%)


Audio:


Format                           : AC-3
Duration                         : 1h 54mn
Bit rate                         : 448 Kbps
Channel(s)                       : 6 channels
Channel positions                : Front: L C R, Side: L R, LFE
Sampling rate                    : 48.0 KHz
Bit depth                        : 16 bits
Stream size                      : 368 MiB (30%)
Alignment                        : Aligned on interleaves
Interleave, duration             : 160 ms (3.84 video frames)
                     


MOVIE INFO:

The powerful but arrogant warrior Thor is cast out of the fantastic realm of 
Asgard and sent to live amongst  humans on Earth, where  he soon becomes one 
of their finest defenders.

                                
http://www.imdb.com/title/tt0800369/ 
http://www.filmweb.pl/film/Thor-2011-325418
                                             


SOURCE:

Felony 720p.BluRay.x264 / PSiG (THX)


SCREENS:
 
http://image.bayimg.com/fajmgaadp.jpg 
http://image.bayimg.com/fajmiaadp.jpg 
http://image.bayimg.com/fajmkaadp.jpg 
http://image.bayimg.com/fajmlaadp.jpg